<svg width="12" height="30" viewBox="0 0 12 30" fill="none" xmlns="http://www.w3.org/2000/svg">
<g id="&#208;&#157;&#208;&#176;&#208;&#191;&#208;&#184;&#209;&#130;&#208;&#186;&#208;&#184;">
<path id="Path" d="M3.41939 1.49017H8.46178C8.74811 1.49017 8.98017 1.25811 8.98017 0.971786C8.98017 0.685464 8.74811 0.4534 8.46178 0.4534H3.41939C3.13306 0.4534 2.901 0.685464 2.901 0.971786C2.901 1.25811 3.13306 1.49017 3.41939 1.49017Z" fill="url(#paint0_linear_3_2459)"/>
<path id="Shape" d="M11.182 28.8952H10.5931C10.7451 28.5624 10.7902 28.1879 10.7151 27.8203L10.2396 25.4919C10.0629 24.6264 10.0276 23.743 10.1348 22.8662L10.7433 17.8889C10.779 17.5966 10.797 17.2993 10.7967 17.0051L10.7917 12.0191C10.7908 11.0705 10.6067 10.145 10.2446 9.26826L8.92174 6.06625C8.60282 5.29432 8.44195 4.47947 8.44356 3.64452L8.44598 2.55488C8.44662 2.26861 8.21501 2.03597 7.92875 2.03534C7.92834 2.03534 7.928 2.03534 7.9276 2.03534C7.64185 2.03534 7.40984 2.26671 7.40921 2.55257L7.40679 3.64234C7.4057 4.21746 7.47136 4.78428 7.60153 5.33746H6.58094C5.98434 5.33746 5.45397 5.70338 5.22698 6.25506C5.22571 6.25805 5.2245 6.26111 5.22323 6.2641L3.90043 9.46612C3.65431 10.0619 3.4962 10.6889 3.42927 11.3276H7.26533L7.06373 17.0055C7.06373 17.0328 7.06391 17.0601 7.06397 17.0875H3.38872C3.39149 17.3343 3.40715 17.5808 3.43711 17.8258L4.04563 22.8032C4.15939 23.7338 4.12178 24.6768 3.93418 25.5955L3.45871 27.9238C3.38682 28.2759 3.47241 28.6173 3.66162 28.8833H2.88053C2.66552 28.8833 2.46415 28.7877 2.32822 28.6212C2.19223 28.4547 2.13889 28.2383 2.18192 28.0276L2.6574 25.6992C2.85657 24.7239 2.89631 23.7284 2.77553 22.7402L2.16706 17.7628C2.13648 17.5125 2.1211 17.2578 2.12133 17.0059L2.12628 12.0199C2.12709 11.2075 2.28473 10.4148 2.59496 9.66391L3.91777 6.4619C4.02703 6.19729 3.90118 5.89415 3.63657 5.78483C3.3719 5.6755 3.06882 5.80141 2.9595 6.06602L1.63669 9.26803C1.27451 10.1447 1.09043 11.0703 1.08951 12.0188L1.08456 17.0048C1.08427 17.299 1.10224 17.5964 1.13795 17.8886L1.74642 22.866C1.85361 23.7429 1.81836 24.6263 1.64165 25.4917L1.16617 27.8201C1.09106 28.1877 1.13616 28.5622 1.28811 28.8951H0.871902C0.58558 28.8951 0.353516 29.1271 0.353516 29.4134C0.353516 29.6998 0.58558 29.9318 0.871902 29.9318H11.182C11.4683 29.9318 11.7004 29.6998 11.7004 29.4134C11.7004 29.1271 11.4683 28.8952 11.182 28.8952ZM8.1869 11.3277H9.71534C9.7412 11.5565 9.75473 11.7874 9.75496 12.02L9.75992 17.0061C9.75992 17.0332 9.75905 17.0604 9.75877 17.0875H8.73386C8.73392 17.0602 8.73409 17.0329 8.73409 17.0056L8.1869 11.3277Z" fill="url(#paint1_linear_3_2459)"/>
</g>
<defs>
<linearGradient id="paint0_linear_3_2459" x1="5.94059" y1="0.0916017" x2="5.94059" y2="1.49017" gradientUnits="userSpaceOnUse">
<stop stop-color="#FA6B9D"/>
<stop offset="1" stop-color="#D33E72"/>
</linearGradient>
<linearGradient id="paint1_linear_3_2459" x1="6.02696" y1="-7.69958" x2="6.02696" y2="29.9318" gradientUnits="userSpaceOnUse">
<stop stop-color="#FA6B9D"/>
<stop offset="1" stop-color="#D33E72"/>
</linearGradient>
</defs>
</svg>
