<svg width="25" height="30" viewBox="0 0 25 30" fill="none" xmlns="http://www.w3.org/2000/svg">
<g id="&#208;&#190;&#208;&#178;&#208;&#190;&#209;&#137;&#208;&#184;">
<path id="Path" d="M8.26143 17.0943C8.27726 17.0948 8.28952 17.0979 8.30586 17.0979C8.30944 17.0979 8.3125 17.0969 8.31608 17.0969C8.36612 15.1833 8.6945 13.2947 9.30121 11.4756L9.81957 9.92158C9.83131 9.88481 9.83795 9.84497 9.83795 9.80565C9.83795 9.60239 9.673 9.43744 9.46974 9.43744H8.16287C7.96012 9.43744 7.79517 9.60239 7.79517 9.80565V10.0355C7.79517 11.3204 7.8539 12.6175 7.97034 13.8922L8.26143 17.0943Z" fill="url(#paint0_linear_3_2463)"/>
<path id="Path_2" d="M17.9902 7.61732L17.5296 0.244904H16.5409L17.4305 7.80985C17.6123 7.7358 17.7992 7.67248 17.9902 7.61732Z" fill="url(#paint1_linear_3_2463)"/>
<path id="Path_3" d="M22.0539 2.28769H21.0734V7.61221C21.2628 7.66635 21.4487 7.72865 21.63 7.80117L22.0539 2.28769Z" fill="url(#paint2_linear_3_2463)"/>
<path id="Path_4" d="M19.5412 7.39466C19.7138 7.39466 19.8834 7.40538 20.0519 7.4207V3.30908H18.744L19.0009 7.42223C19.1791 7.40487 19.3589 7.39466 19.5412 7.39466Z" fill="url(#paint3_linear_3_2463)"/>
<path id="Shape" d="M19.5412 8.41605C17.0067 8.41605 14.945 10.4782 14.945 13.0123V13.4816C14.945 13.8121 14.9807 14.1425 15.0512 14.4632L15.7274 17.5539L14.6018 16.6546C13.7101 15.9422 12.6371 15.5658 11.4998 15.5658C10.7716 15.5658 10.0535 15.7359 9.39523 16.0438C9.37225 16.314 9.35386 16.5846 9.34263 16.8563C9.72922 16.6454 9.88499 16.3712 9.8952 16.3523L10.8053 16.816C10.7792 16.8686 10.1327 18.1193 8.30591 18.1193C6.47915 18.1193 5.83261 16.8686 5.80605 16.8155L6.71611 16.3518C6.72582 16.3691 6.86932 16.6143 7.21047 16.819L7.13591 15.9994C6.50264 15.718 5.80503 15.5658 5.11202 15.5658C2.36753 15.5658 0.134766 17.7986 0.134766 20.5431V21.8683C0.134766 23.0174 0.389093 24.1761 0.87068 25.2195C2.17296 28.0416 5.02315 29.8653 8.13177 29.8653H8.48006C11.5887 29.8653 14.4389 28.0416 15.7411 25.2195C15.8979 24.8799 16.0317 24.5061 16.163 24.0429L16.7176 22.0828L18.1807 28.7699C18.3191 29.4047 18.8921 29.8653 19.5412 29.8653C20.1903 29.8653 20.7633 29.4047 20.9017 28.7704L22.0028 23.7369H20.0519V22.7156H22.2265L22.4502 21.6942H19.0305V20.6728H22.6733L23.1202 18.63H21.584V17.6086H23.3434L23.5671 16.5872H19.5412V15.5658H23.7902L24.0313 14.4637C24.1018 14.1425 24.1375 13.8121 24.1375 13.4816V13.0123C24.1375 10.4782 22.0758 8.41605 19.5412 8.41605ZM13.1284 18.1035C12.8608 17.9242 12.5682 17.7909 12.2592 17.7082L12.5238 16.7215C12.9415 16.8333 13.3363 17.0126 13.6973 17.2547L13.1284 18.1035ZM15.4557 21.8683C15.4557 22.8698 15.2335 23.8805 14.8137 24.7915L13.8863 24.3641C14.2448 23.5863 14.4343 22.7232 14.4343 21.8683V20.5431C14.4343 19.9603 14.2632 19.3976 13.9389 18.9144L14.7877 18.346C15.2248 18.9977 15.4557 19.7576 15.4557 20.5431V21.8683Z" fill="url(#paint4_linear_3_2463)"/>
<path id="Path_5" d="M5.24175 13.523H5.79585L2.3747 10.8623L3.00234 10.0559L6.77282 12.9888C6.75954 11.0283 5.16208 9.43744 3.19896 9.43744H1.66687V9.94814C1.66687 11.9194 3.27097 13.523 5.24175 13.523Z" fill="url(#paint5_linear_3_2463)"/>
</g>
<defs>
<linearGradient id="paint0_linear_3_2463" x1="8.81656" y1="6.76421" x2="8.81656" y2="17.0979" gradientUnits="userSpaceOnUse">
<stop stop-color="#8FFAA0"/>
<stop offset="1" stop-color="#2FD14B"/>
</linearGradient>
<linearGradient id="paint1_linear_3_2463" x1="17.2656" y1="-2.395" x2="17.2656" y2="7.80985" gradientUnits="userSpaceOnUse">
<stop stop-color="#8FFAA0"/>
<stop offset="1" stop-color="#2FD14B"/>
</linearGradient>
<linearGradient id="paint2_linear_3_2463" x1="21.5636" y1="0.363674" x2="21.5636" y2="7.80117" gradientUnits="userSpaceOnUse">
<stop stop-color="#8FFAA0"/>
<stop offset="1" stop-color="#2FD14B"/>
</linearGradient>
<linearGradient id="paint3_linear_3_2463" x1="19.398" y1="1.87373" x2="19.398" y2="7.42223" gradientUnits="userSpaceOnUse">
<stop stop-color="#8FFAA0"/>
<stop offset="1" stop-color="#2FD14B"/>
</linearGradient>
<linearGradient id="paint4_linear_3_2463" x1="12.1361" y1="0.930991" x2="12.1361" y2="29.8653" gradientUnits="userSpaceOnUse">
<stop stop-color="#8FFAA0"/>
<stop offset="1" stop-color="#2FD14B"/>
</linearGradient>
<linearGradient id="paint5_linear_3_2463" x1="4.21984" y1="8.01171" x2="4.21984" y2="13.523" gradientUnits="userSpaceOnUse">
<stop stop-color="#8FFAA0"/>
<stop offset="1" stop-color="#2FD14B"/>
</linearGradient>
</defs>
</svg>
