<svg width="27" height="30" viewBox="0 0 27 30" fill="none" xmlns="http://www.w3.org/2000/svg">
<g id="&#208;&#160;&#209;&#139;&#208;&#177;&#208;&#176;">
<path id="Shape" d="M10.8392 7.01762C9.58139 6.99905 8.33529 7.21341 7.15701 7.63198C6.92276 9.15538 7.45381 10.7554 8.72742 11.8153C10.1507 12.9997 12.0727 13.1647 13.6325 12.4008C14.3578 11.1732 14.8436 9.71569 14.9918 7.93532C13.6544 7.33708 12.2406 7.03761 10.8392 7.01762ZM11.5515 8.99315C11.8229 8.99315 12.0429 9.21318 12.0429 9.48461C12.0429 9.75604 11.8229 9.97608 11.5515 9.97608C11.28 9.97608 11.06 9.75604 11.06 9.48461C11.06 9.21318 11.28 8.99315 11.5515 8.99315Z" fill="url(#paint0_linear_3_2467)"/>
<path id="Shape_2" d="M6.12222 8.06009C4.81895 8.68682 3.63363 9.58546 2.66271 10.7421C-1.02998 15.1408 -0.42631 21.6729 4.01234 25.3327C5.12103 26.243 6.4068 26.9175 7.79053 27.312L7.84617 27.3562L8.63905 29.635C8.86512 29.5573 9.06456 29.4206 9.22843 29.2472C9.32515 29.1428 9.40609 29.0243 9.46649 28.8957C9.62429 28.5625 9.63113 28.0334 9.52212 27.834C9.38976 27.5922 9.50868 27.3522 9.50868 27.3522C9.50868 27.3522 9.55438 27.1932 9.8888 27.0855C10.2232 26.9781 11.029 26.0271 10.7738 25.2886L8.39134 26.1025C8.07291 25.9335 7.77052 25.7362 7.49287 25.5073C5.12556 23.5553 3.97223 18.9648 6.77294 17.7245C9.04991 16.7161 11.1476 15.5162 12.6629 13.7504C11.097 14.045 9.41576 13.6668 8.09953 12.5717C6.71772 11.4217 6.04556 9.73298 6.12213 8.06009H6.12222ZM4.74955 11.3257C4.76625 11.3261 4.78291 11.3273 4.79949 11.3294C5.06778 11.3605 5.26068 11.6023 5.23145 11.8708C5.2013 12.1398 4.95922 12.3338 4.69005 12.3047C4.56046 12.2902 4.44192 12.2248 4.36055 12.1229C4.27917 12.021 4.24163 11.891 4.25618 11.7614C4.28469 11.5111 4.49774 11.323 4.74957 11.3256L4.74955 11.3257ZM3.53431 13.0286C3.55094 13.0277 3.56761 13.0277 3.58424 13.0286C3.59644 13.0294 3.60861 13.0306 3.62072 13.0323C3.75033 13.0468 3.86887 13.1121 3.95025 13.2141C4.03163 13.316 4.06917 13.446 4.0546 13.5756C4.04014 13.7052 3.97476 13.8238 3.87286 13.9051C3.77096 13.9865 3.64089 14.0241 3.5113 14.0095C3.3817 13.995 3.26315 13.9297 3.18177 13.8277C3.1004 13.7258 3.06286 13.5958 3.07742 13.4662C3.10306 13.2286 3.29587 13.0439 3.53433 13.0285L3.53431 13.0286ZM5.75169 13.4164C5.76836 13.4162 5.78503 13.4168 5.80163 13.4183C6.07074 13.4494 6.26394 13.6924 6.23359 13.9616C6.21913 14.0912 6.15374 14.2098 6.05184 14.2911C5.94994 14.3725 5.81987 14.4101 5.69028 14.3955C5.42117 14.3644 5.22797 14.1214 5.25832 13.8522C5.28683 13.602 5.49988 13.4138 5.75171 13.4164L5.75169 13.4164ZM7.84045 14.6393C7.85649 14.6397 7.8725 14.641 7.88842 14.643C8.01802 14.6575 8.13656 14.7228 8.21793 14.8247C8.29931 14.9266 8.33685 15.0567 8.3223 15.1863C8.29122 15.4554 8.0482 15.6486 7.77899 15.6183C7.50993 15.5881 7.31593 15.346 7.34512 15.0769C7.37278 14.8251 7.5872 14.6356 7.84042 14.6391L7.84045 14.6393ZM5.77665 15.3976C5.79332 15.3974 5.80998 15.3981 5.82658 15.3996C5.95619 15.414 6.07473 15.4794 6.15611 15.5813C6.23749 15.6832 6.27503 15.8133 6.26046 15.9429C6.24599 16.0725 6.18061 16.191 6.07871 16.2724C5.97681 16.3538 5.84675 16.3913 5.71716 16.3767C5.58756 16.3623 5.46902 16.2969 5.38765 16.195C5.30627 16.0931 5.26873 15.963 5.28328 15.8335C5.31179 15.5832 5.52484 15.395 5.77667 15.3976L5.77665 15.3976Z" fill="url(#paint1_linear_3_2467)"/>
<path id="Shape_3" d="M18.3956 0.146637C18.1696 0.224653 17.9701 0.358767 17.8062 0.532521V0.53449C17.7095 0.638883 17.6286 0.757394 17.5682 0.885935C17.4104 1.21918 17.4036 1.74824 17.5126 1.94755C17.6449 2.18977 17.526 2.42943 17.526 2.42943C17.526 2.42943 17.4803 2.58658 17.1459 2.69432C16.8115 2.80168 16.0057 3.7546 16.2609 4.49319L18.6453 3.67725C18.9637 3.84628 19.2642 4.04541 19.5418 4.2743C21.9091 6.22634 23.0624 10.817 20.2617 12.0572C17.979 13.0681 15.8764 14.2715 14.3602 16.0447C14.7498 15.97 15.1473 15.9217 15.5544 15.9332C17.7361 15.9953 19.6801 17.3362 20.5113 19.3543C20.8256 20.1173 20.9591 20.9243 20.9222 21.7176C22.2218 21.0911 23.4053 20.1934 24.374 19.0395C28.0667 14.6407 27.4611 8.10862 23.0224 4.44891C21.9137 3.5386 20.628 2.86413 19.2442 2.46956L19.1886 2.42535L18.3956 0.146637ZM21.0008 13.4049C21.0124 13.4051 21.0239 13.4058 21.0354 13.4068C21.3055 13.4233 21.5115 13.655 21.4962 13.9252C21.4887 14.0556 21.4297 14.1777 21.3321 14.2645C21.2344 14.3513 21.1063 14.3957 20.9759 14.3878C20.705 14.3714 20.4987 14.1384 20.5151 13.8676C20.5303 13.6096 20.7425 13.4075 21.0008 13.4049L21.0008 13.4049ZM18.9793 14.2688C18.9908 14.269 19.0023 14.2697 19.0138 14.2707C19.1443 14.2781 19.2664 14.3372 19.3532 14.4348C19.44 14.5324 19.4844 14.6606 19.4765 14.791C19.4691 14.9214 19.4101 15.0436 19.3124 15.1304C19.2148 15.2172 19.0867 15.2616 18.9563 15.2537C18.6854 15.2372 18.4791 15.0043 18.4955 14.7334C18.5096 14.4755 18.721 14.2725 18.9793 14.2688L18.9793 14.2688ZM21.1294 15.3803C21.141 15.3806 21.1525 15.3812 21.164 15.3823C21.2945 15.3897 21.4166 15.4488 21.5034 15.5464C21.5902 15.644 21.6346 15.7722 21.6267 15.9026C21.6193 16.033 21.5602 16.1551 21.4626 16.2419C21.365 16.3287 21.2368 16.3731 21.1064 16.3652C20.976 16.3578 20.8539 16.2988 20.7671 16.2012C20.6803 16.1035 20.6359 15.9754 20.6438 15.845C20.6579 15.5863 20.8704 15.383 21.1295 15.3804L21.1294 15.3803ZM23.3142 15.6549C23.3308 15.654 23.3475 15.654 23.3641 15.6549C23.635 15.6713 23.8413 15.9043 23.8249 16.1751C23.8084 16.4452 23.5767 16.6511 23.3065 16.6358C23.0357 16.6204 22.8286 16.3884 22.8439 16.1176C22.8584 15.8654 23.0618 15.6653 23.3142 15.6549H23.3142ZM22.241 17.4153C22.2525 17.4149 22.2641 17.4149 22.2756 17.4153C22.5465 17.4318 22.7528 17.6647 22.7364 17.9356C22.7199 18.2057 22.4882 18.4117 22.218 18.3964C21.9471 18.381 21.74 18.1489 21.7553 17.878C21.7695 17.6194 21.982 17.4161 22.241 17.4135L22.241 17.4153Z" fill="url(#paint2_linear_3_2467)"/>
<path id="Shape_4" d="M15.5273 16.9163C14.7719 16.894 14.0471 17.0705 13.3963 17.3905C12.6746 18.6159 12.1926 20.0712 12.0448 21.8463C14.5851 22.9827 17.3923 23.034 19.8853 22.1458C20.0074 21.3448 19.9249 20.5099 19.6031 19.7287C18.9187 18.0672 17.3236 16.9673 15.5273 16.9162L15.5273 16.9163ZM15.4486 19.8056C15.4601 19.8052 15.4716 19.8052 15.4831 19.8056C15.7545 19.8056 15.9746 20.0256 15.9746 20.297C15.9746 20.5685 15.7545 20.7885 15.4831 20.7885C15.2117 20.7885 14.9916 20.5685 14.9916 20.297C14.991 20.0385 15.1907 19.8237 15.4486 19.8056H15.4486Z" fill="url(#paint3_linear_3_2467)"/>
</g>
<defs>
<linearGradient id="paint0_linear_3_2467" x1="11.0475" y1="4.9753" x2="11.0475" y2="12.8658" gradientUnits="userSpaceOnUse">
<stop stop-color="#00C9FF"/>
<stop offset="1" stop-color="#58C6F8"/>
</linearGradient>
<linearGradient id="paint1_linear_3_2467" x1="6.45365" y1="0.531201" x2="6.45365" y2="29.635" gradientUnits="userSpaceOnUse">
<stop stop-color="#00C9FF"/>
<stop offset="1" stop-color="#58C6F8"/>
</linearGradient>
<linearGradient id="paint2_linear_3_2467" x1="20.5759" y1="-7.38089" x2="20.5759" y2="21.7176" gradientUnits="userSpaceOnUse">
<stop stop-color="#00C9FF"/>
<stop offset="1" stop-color="#58C6F8"/>
</linearGradient>
<linearGradient id="paint3_linear_3_2467" x1="15.9919" y1="14.8741" x2="15.9919" y2="22.761" gradientUnits="userSpaceOnUse">
<stop stop-color="#00C9FF"/>
<stop offset="1" stop-color="#58C6F8"/>
</linearGradient>
</defs>
</svg>
